{"title":"Sabse Badi Hera Pheri (2007)_DvD RiP_With Hindi Audio_x264,AAC_{","uid":9284511,"size":685672754,"categoryP":"video","categoryS":"movies","magnet":"?xt=urn:btih:50d96ba91188130f9c2669a8e9a74dc14a24257f&amp;dn=Sabse+Badi+Hera+Pheri+%282007%29_DvD+RiP_With+Hindi+Audio_x264%2CAAC_%7B&amp;tr=udp%3A%2F%2Ftracker.openbittorrent.com%3A80&amp;tr=udp%3A%2F%2Fopen.demonii.com%3A1337&amp;tr=udp%3A%2F%2Ftracker.coppersurfer.tk%3A6969&amp;tr=udp%3A%2F%2Fexodus.desync.com%3A6969","seeders":1,"leechers":4,"uploader":"shilpa143","files":19,"time":1385990923,"description":"[img]http://s28.postimg.org/3q37stel9/poster.jpg[/img]\n\n\nImdb Link :- NA\n\n\n[img]http://i.cubeupload.com/8K6BPX.png[/img]\n\nLanguage: Hindi\nGenre:  Comedy\nRun Time - 1 Hr. 57 Min\nCast: Vishnu Manchu, Genelia D'Souza, Srihari, Brahmanandam\nDirector: Sreenu Vaitla\nBabloo (Vishnu Manchu) likes to have fun and is always getting in trouble. So his father Narayana (Chandra Mohan) gets him a job with Shanker Goud (Srihari). Shanker Goud and Bhallu are rivals and Bhallu is determined to kill Shanker Goud's sister Pooja (Genelia D'Souza). Babloo falls in love with Pooja but Shanker is planning an arranged marriage for her with Ajay (Akash). Babloo and Pooja elope to get married\n\n\n\n[img]http://i.cubeupload.com/TaXMhY.png[/img]\n\n[b]General\nComplete name                            : Sabse Badi Hera Pheri.mp4\nFormat                                   : MPEG-4\nFormat profile                           : Base Media / Version 2\nCodec ID                                 : mp42\nFile size                                : 642 MiB\nDuration                                 : 1h 56mn\nOverall bit rate mode                    : Variable\nOverall bit rate                         : 773 Kbps\nEncoded date                             : UTC 2013-12-01 08:01:35\nTagged date                              : UTC 2013-12-01 17:24:49\nWriting application                      : HandBrake 0.9.9 2013052900\n\nVideo\nID                                       : 1\nFormat                                   : AVC\nFormat/Info                              : Advanced Video Codec\nFormat profile                           : &lt;a class=&quot;__cf_email__&quot; href=&quot;/cdn-cgi/l/email-protection&quot; data-cfemail=&quot;0941606e6149453b273b&quot;&gt;[email&amp;#160;protected]&lt;/a&gt;&lt;script cf-hash='f9e31' type=&quot;text/javascript&quot;&gt;\n/* &lt;![CDATA[ */!function(){try{var t=&quot;currentScript&quot;in document?document.currentScript:function(){for(var t=document.getElementsByTagName(&quot;script&quot;),e=t.length;e--;)if(t[e].getAttribute(&quot;cf-hash&quot;))return t[e]}();if(t&amp;&amp;t.previousSibling){var e,r,n,i,c=t.previousSibling,a=c.getAttribute(&quot;data-cfemail&quot;);if(a){for(e=&quot;&quot;,r=parseInt(a.substr(0,2),16),n=2;a.length-n;n+=2)i=parseInt(a.substr(n,2),16)^r,e+=String.fromCharCode(i);e=document.createTextNode(e),c.parentNode.replaceChild(e,c)}}}catch(u){}}();/* ]]&gt; */&lt;/script&gt;\nFormat settings, CABAC                   : Yes\nFormat settings, ReFrames                : 8 frames\nCodec ID                                 : avc1\nCodec ID/Info                            : Advanced Video Coding\nDuration                                 : 1h 56mn\nBit rate mode                            : Variable\nBit rate                                 : 641 Kbps\nWidth                                    : 656 pixels\nHeight                                   : 288 pixels\nDisplay aspect ratio                     : 2.25:1\nFrame rate mode                          : Variable\nFrame rate                               : 25.000 fps\nMinimum frame rate                       : 14.286 fps\nMaximum frame rate                       : 25.000 fps\nColor space                              : YUV\nChroma subsampling                       : 4:2:0\nBit depth                                : 8 bits\nScan type                                : Progressive\nBits/(Pixel*Frame)                       : 0.136\nStream size                              : 533 MiB (83%)\nWriting library                          : x264 core 130 r2273 b3065e6\n\n\nAudio\n\nLanguage                                 : Hindi\nID                                       : 2\nFormat                                   : AAC\nFormat/Info                              : Advanced Audio Codec\nFormat profile                           : LC\nCodec ID                                 : 40\nDuration                                 : 1h 56mn\nBit rate mode                            : Variable\nBit rate                                 : 128 Kbps\nMaximum bit rate                         : 215 Kbps\nChannel count                            : 2 channels\nChannel positions                        : Front: L R\nSampling rate                            : 48.0 KHz\nCompression mode                         : Lossy\nDelay relative to video                  : 140ms\nStream size                              : 106 MiB (17%)\n\n\n[/b]\n\n\n[img]http://i.cubeupload.com/eh1EHE.png[/img]\n\n\n[img]http://s28.postimg.org/mwgevzv31/Sabse_Badi_Hera_Pheri.jpg[/img]\n\n\n\n\n\n[img]http://s22.postimg.org/bhay4358x/thanks.jpg[/img]","torrent":{"xt":"urn:btih:50d96ba91188130f9c2669a8e9a74dc14a24257f","amp;dn":"Sabse+Badi+Hera+Pheri+%282007%29_DvD+RiP_With+Hindi+Audio_x264%2CAAC_%7B","amp;tr":["udp%3A%2F%2Ftracker.openbittorrent.com%3A80","udp%3A%2F%2Fopen.demonii.com%3A1337","udp%3A%2F%2Ftracker.coppersurfer.tk%3A6969","udp%3A%2F%2Fexodus.desync.com%3A6969"],"infoHash":"50d96ba91188130f9c2669a8e9a74dc14a24257f","infoHashBuffer":{"type":"Buffer","data":[80,217,107,169,17,136,19,15,156,38,105,168,233,167,77,193,74,36,37,127]},"announce":[],"urlList":[]}}